<svg width="27" height="27" fill="none" xmlns="http://www.w3.org/2000/svg"><path d="M5.502 17.948c2.663 3.183 5.869 5.69 9.528 7.463 1.393.66 3.256 1.444 5.331 1.578.129.005.252.011.38.011 1.394 0 2.513-.481 3.425-1.471.005-.006.017-.017.022-.028.325-.392.694-.745 1.08-1.12.263-.251.531-.514.789-.783 1.191-1.242 1.191-2.82-.011-4.022l-3.363-3.363c-.57-.593-1.253-.906-1.97-.906-.715 0-1.404.313-1.99.9l-2.004 2.004a9.591 9.591 0 00-.554-.291 6.911 6.911 0 01-.615-.336c-1.824-1.158-3.48-2.668-5.063-4.61-.8-1.013-1.337-1.863-1.712-2.73a33.7 33.7 0 001.493-1.46c.168-.174.342-.347.515-.52.604-.605.929-1.304.929-2.015 0-.71-.319-1.41-.929-2.014L9.116 2.568c-.196-.196-.38-.386-.57-.582-.37-.38-.756-.772-1.136-1.124C6.833.297 6.156 0 5.44 0c-.71 0-1.393.297-1.99.867L1.356 2.96A4.3 4.3 0 00.075 5.712c-.106 1.337.14 2.758.778 4.476.979 2.657 2.456 5.125 4.649 7.76zM1.44 5.83a2.96 2.96 0 01.89-1.903l2.08-2.08c.325-.314.683-.476 1.03-.476.342 0 .688.162 1.007.486.375.347.728.711 1.108 1.097.19.196.386.392.582.593l1.667 1.667c.347.347.526.7.526 1.046 0 .347-.179.7-.526 1.047-.173.173-.347.352-.52.526-.52.525-1.007 1.023-1.544 1.499l-.028.028c-.465.464-.392.906-.28 1.242l.017.045c.43 1.035 1.03 2.02 1.963 3.194 1.679 2.07 3.447 3.676 5.394 4.912.24.157.498.28.738.403.224.112.431.218.616.336.022.011.039.022.061.034.185.095.364.14.543.14.448 0 .738-.286.834-.381l2.092-2.093c.324-.324.677-.497 1.024-.497.425 0 .772.262.99.497l3.374 3.369c.671.67.665 1.398-.017 2.109-.235.252-.481.492-.744.744-.392.38-.8.772-1.17 1.214-.643.694-1.41 1.018-2.4 1.018a5.05 5.05 0 01-.29-.011c-1.836-.118-3.542-.834-4.823-1.444-3.48-1.683-6.535-4.072-9.07-7.105-2.086-2.512-3.49-4.85-4.419-7.357-.576-1.538-.794-2.775-.705-3.9z" fill="#000" fill-opacity=".53"/></svg>