<svg width="21" height="21" fill="none" xmlns="http://www.w3.org/2000/svg"><path d="M10.5 0C4.701 0 0 4.701 0 10.5 0 16.3 4.701 21 10.5 21S21 16.3 21 10.5C21 4.701 16.299 0 10.5 0zm2.941 18.499c-.06-.822-.128-1.84-.132-2.252-.026-.316-.06-1.12-.824-1.634 3.033-.254 4.476-1.93 4.58-4.145.086-1.261-.415-2.37-1.306-3.266a17.956 17.956 0 00-.09-2.59c-.684-.197-2.279.645-2.725 1.005-.94-.365-3.24-.493-4.637 0-.991-.697-2.12-1.128-2.734-1.007-.568 1.258-.203 2.447-.092 2.588-.731.669-1.75 1.49-1.474 3.213.444 2.526 2.221 3.889 5.083 4.222-.61.125-.714.58-.765.778-1.921.792-2.47-.49-2.713-.824-.807-.998-1.53-.709-1.575-.693-.044.016-.077.079-.072.11.04.214.48.433.501.45.596.444.816 1.245.952 1.474.854 1.404 2.838.822 2.857.833.002.123-.014 1.156-.025 1.96-3.619-.988-6.281-4.29-6.281-8.221a8.53 8.53 0 018.53-8.531 8.531 8.531 0 018.532 8.531c0 3.677-2.33 6.8-5.59 7.999z" fill="#fff"/></svg>